<svg width="1045" height="1512" xmlns="http://www.w3.org/2000/svg" xmlns:xlink="http://www.w3.org/1999/xlink" xml:space="preserve" overflow="hidden"><defs><clipPath id="clip0"><rect x="1023" y="223" width="1045" height="1512"/></clipPath></defs><g clip-path="url(#clip0)" transform="translate(-1023 -223)"><path d="M31.8928 16.3279C33.4114 16.3279 34.6428 17.5592 34.6428 19.0779L34.6428 109.828C34.6428 111.346 33.4114 112.578 31.8928 112.578L20.8931 112.578C19.3745 112.578 18.1431 111.346 18.1431 109.828L18.1431 19.0779C18.1431 17.5592 19.3745 16.3279 20.8931 16.3279ZM64.4153 16.3279C65.934 16.3279 67.1653 17.5592 67.1653 19.0779L67.1653 109.828C67.1653 111.346 65.934 112.578 64.4153 112.578L53.4157 112.578C51.897 112.578 50.6657 111.346 50.6657 109.828L50.6657 19.0779C50.6657 17.5592 51.897 16.3279 53.4157 16.3279ZM96.9379 16.3279C98.4565 16.3279 99.6879 17.5592 99.6879 19.0779L99.6879 109.828C99.6879 111.346 98.4565 112.578 96.9379 112.578L85.9382 112.578C84.4196 112.578 83.1882 111.346 83.1882 109.828L83.1882 19.0779C83.1882 17.5592 84.4196 16.3279 85.9382 16.3279ZM100.26 0 20.0526 0C8.97792 0 0 8.97792 0 20.0526L0 120.025C0 131.1 8.97792 140.078 20.0526 140.078L46.4064 140.078 46.4064 330.859 71.4239 330.859 71.4239 140.078 100.26 140.078C111.335 140.078 120.312 131.1 120.312 120.025L120.312 20.0526C120.312 8.97792 111.335 0 100.26 0Z" fill="#FFFFFF" fill-rule="evenodd" transform="matrix(-0.682868 0.730542 0.730542 0.682868 1098.63 883.844)"/><path d="M447.42 872.566 444.128 868.021C437.537 860.434 430.216 854.895 422.412 851.87L409.074 849.323 400.807 849.323 335.491 871.662 310.727 813.861 362.525 792.646C405.732 774.949 453.56 786.042 484.725 817.005L498.462 833.666ZM543.607 1020.68C501.128 1020.68 466.692 986.053 466.692 943.336 466.692 900.619 501.128 865.99 543.607 865.99 586.086 865.99 620.522 900.619 620.522 943.336 620.522 986.053 586.086 1020.68 543.607 1020.68ZM265.129 1020.68C222.651 1020.68 188.214 986.053 188.214 943.336 188.214 900.619 222.651 865.99 265.129 865.99 307.608 865.99 342.045 900.619 342.045 943.336 342.045 986.053 307.608 1020.68 265.129 1020.68ZM23.8841 1272.42 54.165 1182.5 844.835 1182.5 875.116 1272.42ZM0 1287 899 1287 449.5 0Z" fill="#FFFFFF" fill-rule="evenodd" transform="matrix(1 0 0 -1 1023 1735)"/><rect x="1922" y="448" width="146" height="1282" fill="#FFFFFF"/><rect x="1422" y="388" width="443" height="59.9998" fill="#FFFFFF"/><rect x="1524" y="223" width="239" height="165" fill="#FFFFFF"/></g></svg>